{"title":"Iyaz - Replay Movie includes mp3","uid":5461508,"size":66157667,"categoryP":"video","categoryS":"music_videos","magnet":"?xt=urn:btih:2706c79ba3a9c7ade19203cac8eb5a43671f0d8b&amp;dn=Iyaz+-+Replay+Movie+includes+mp3&amp;tr=udp%3A%2F%2Ftracker.openbittorrent.com%3A80&amp;tr=udp%3A%2F%2Fopen.demonii.com%3A1337&amp;tr=udp%3A%2F%2Ftracker.coppersurfer.tk%3A6969&amp;tr=udp%3A%2F%2Fexodus.desync.com%3A6969","seeders":0,"leechers":0,"uploader":"pbahpirate","files":-1,"time":1269480291,"description":"RNB Movie - Hight Definition\n\nFormat                           : AVI\nFormat/Info                      : Audio Video Interleave\nFile size                        : 55.0 MiB\nDuration                         : 3mn 17s\nOverall bit rate                 : 2 340 Kbps\nMovie name                       : Iyaz - Replay\nDirector                         : (c) 2009 mixxing by_Dj.Tong.\nWriting application              : VirtualDubMod 1.5.10.2 (build 2540/release)\nWriting library                  : VirtualDubMod build 2540/release\nCopyright                        : (c) 2009 mixxing by_Dj.Tong.\nComment                          : (c) 2009 mixxing by_Dj.Tong.\n\nVideo\nID                               : 0\nFormat                           : AVC\nFormat/Info                      : Advanced Video Codec\nFormat profile                   : &lt;a class=&quot;__cf_email__&quot; href=&quot;/cdn-cgi/l/email-protection&quot; data-cfemail=&quot;a5edccc2cde5e9968b94&quot;&gt;[email&amp;#160;protected]&lt;/a&gt;&lt;script cf-hash='f9e31' type=&quot;text/javascript&quot;&gt;\n/* &lt;![CDATA[ */!function(){try{var t=&quot;currentScript&quot;in document?document.currentScript:function(){for(var t=document.getElementsByTagName(&quot;script&quot;),e=t.length;e--;)if(t[e].getAttribute(&quot;cf-hash&quot;))return t[e]}();if(t&amp;&amp;t.previousSibling){var e,r,n,i,c=t.previousSibling,a=c.getAttribute(&quot;data-cfemail&quot;);if(a){for(e=&quot;&quot;,r=parseInt(a.substr(0,2),16),n=2;a.length-n;n+=2)i=parseInt(a.substr(n,2),16)^r,e+=String.fromCharCode(i);e=document.createTextNode(e),c.parentNode.replaceChild(e,c)}}}catch(u){}}();/* ]]&gt; */&lt;/script&gt;\nFormat settings, CABAC           : Yes\nFormat settings, ReFrames        : 3 frames\nCodec ID                         : AVC1\nDuration                         : 3mn 17s\nBit rate                         : 2 010 Kbps\nWidth                            : 1 280 pixels\nHeight                           : 720 pixels\nDisplay aspect ratio             : 16:9\nFrame rate                       : 23.976 fps\nResolution                       : 8 bits\nColorimetry                      : 4:2:0\nScan type                        : Progressive\nBits/(Pixel*Frame)               : 0.091\nStream size                      : 47.3 MiB (86%)\n\nAudio\nID                               : 1\nFormat                           : MPEG Audio\nFormat version                   : Version 1\nFormat profile                   : Layer 3\nMode                             : Joint stereo\nCodec ID                         : 55\nCodec ID/Hint                    : MP3\nDuration                         : 3mn 17s\nBit rate mode                    : Constant\nBit rate                         : 320 Kbps\nChannel(s)                       : 2 channels\nSampling rate                    : 48.0 KHz\nStream size                      : 7.53 MiB (14%)\nAlignment                        : Aligned on interleaves\nInterleave, duration             : 42 ms (1.00 video frame)\nInterleave, preload duration     : 504 ms\nTitle                            : (c) 2009 mixxing by_Dj.Tong.\nWriting library                  : LAME3.98r\nEncoding settings                : -m j -V 4 -q 3 -lowpass 20.5\n\n","torrent":{"xt":"urn:btih:2706c79ba3a9c7ade19203cac8eb5a43671f0d8b","amp;dn":"Iyaz+-+Replay+Movie+includes+mp3","amp;tr":["udp%3A%2F%2Ftracker.openbittorrent.com%3A80","udp%3A%2F%2Fopen.demonii.com%3A1337","udp%3A%2F%2Ftracker.coppersurfer.tk%3A6969","udp%3A%2F%2Fexodus.desync.com%3A6969"],"infoHash":"2706c79ba3a9c7ade19203cac8eb5a43671f0d8b","infoHashBuffer":{"type":"Buffer","data":[39,6,199,155,163,169,199,173,225,146,3,202,200,235,90,67,103,31,13,139]},"announce":[],"urlList":[]}}